# xmcd CD database file
#
# Track frame offsets:
#	150
#	11590
#	23120
#	33347
#	46105
#	63440
#	76885
#	89227
#	101432
#	115045
#	127970
#	140007
#	153492
#	165015
#	179915
#	194470
#	215617
#	226857
#	241695
#	256632
#
# Disc length: 3673 seconds
#
# Revision: 3
# Processed by: cddbd v1.4PL0 Copyright (c) Steve Scherf et al.
# Submitted via: CDex 1.50Beta3
#
DISCID=fd0e5714
DTITLE=Various Artist - 40 Jahre Radio Hits aus Luxemburg Teil 4
DYEAR=1900
DGENRE=
TTITLE0=Peter Kraus - Sugar Baby
TTITLE1=Ivo Robic - Morgen 
TTITLE2=Connie Francis - Die Liebe ist ein seltsames Spiel
TTITLE3=Gus Backus - Da sprach der alte Haeuptling der Indianer
TTITLE4=Freddy Quinn - La Paloma
TTITLE5=Mina - Heisser Sand
TTITLE6=Conny Froboess - Zwei kleine Italiener
TTITLE7=Gitte - Ich will 'nen Cowboy als Mann
TTITLE8=Roy Black - Ganz in Weiss
TTITLE9=Dorthe - Sind Sie der Graf von Luxemburg
TTITLE10=Peter Alexander - Komm und bedien' dich
TTITLE11=Adamo - Es geht eine Traene auf Reisen
TTITLE12=Michael Holm - Mendocino
TTITLE13=Daliah Lavi - Oh, wann kommst du
TTITLE14=Chris Roberts - Hab' ich dir heute schon gesagt, dass ich dich liebe
TTITLE15=Christian Anders - Es faehrt ein Zug nach nirgendwo
TTITLE16=Juergen Marcus - Ein Festival der Liebe
TTITLE17=Bernd Cluever - Der Junge mit der Mundharmonika
TTITLE18=Juliane Werding - Wenn du denkst du denkst dann denkst du nur du denkst
TTITLE19=Frank Farian - Rocky 
EXTD=
EXTT0=
EXTT1=
EXTT2=
EXTT3=
EXTT4=
EXTT5=
EXTT6=
EXTT7=
EXTT8=
EXTT9=
EXTT10=
EXTT11=
EXTT12=
EXTT13=
EXTT14=
EXTT15=
EXTT16=
EXTT17=
EXTT18=
EXTT19=
PLAYORDER=
